<svg width="138" height="138" viewBox="0 0 138 138" fill="none" xmlns="http://www.w3.org/2000/svg">
	<g clip-path="url(#clip0_566_253)">
		<path
			d="M69 138C107.108 138 138 107.108 138 69C138 30.8924 107.108 0 69 0C30.8924 0 0 30.8924 0 69C0 107.108 30.8924 138 69 138Z"
			fill="url(#paint0_linear_566_253)" />
		<path
			d="M30.8298 18.1601H98.4913C102.073 18.1601 104.541 19.3701 105.896 21.79C107.251 24.1132 107.929 26.9687 107.929 30.3566C107.929 31.8086 107.832 33.2122 107.639 34.5673C107.445 35.8257 107.203 36.8905 106.913 37.7616H51.4477C46.1237 37.7616 41.9131 37.2292 38.8156 36.1645C35.7181 35.0997 33.4917 33.5025 32.1366 31.373C30.8782 29.2434 30.249 26.7267 30.249 23.8228C30.249 22.758 30.2974 21.79 30.3942 20.9189C30.491 20.0477 30.6362 19.1281 30.8298 18.1601ZM81.3581 119.798C80.2935 120.088 79.2284 120.281 78.1638 120.378C77.1957 120.572 75.9376 120.669 74.3887 120.669C69.0647 120.669 65.1444 119.507 62.6278 117.184C60.2077 114.764 58.9979 110.989 58.9979 105.859C58.9979 99.8574 58.9979 93.9043 58.9979 87.9996C58.9979 81.9982 58.9979 76.0452 58.9979 70.1404C58.9979 64.2356 58.9979 58.2826 58.9979 52.2813C58.9979 46.28 58.9979 40.2783 58.9979 34.2769H76.2763L74.8243 38.6328C76.0828 39.4072 77.0505 40.3752 77.7282 41.5367C78.5025 42.6983 79.035 44.0533 79.3254 45.6022C79.7127 47.1511 79.9062 48.8935 79.9062 50.8293C79.9062 56.9275 79.9062 63.0258 79.9062 69.124C79.9062 75.1253 79.9062 81.1753 79.9062 87.2736C79.9062 93.3718 79.9062 99.4701 79.9062 105.568C79.9062 107.891 80.0031 110.312 80.1966 112.828C80.39 115.248 80.7773 117.571 81.3581 119.798Z"
			fill="white" />
	</g>
	<defs>
		<linearGradient id="paint0_linear_566_253" x1="0" y1="0" x2="138" y2="138" gradientUnits="userSpaceOnUse">
			<stop stop-color="#3500CC" />
			<stop offset="1" stop-color="#00FFC2" />
		</linearGradient>
		<clipPath id="clip0_566_253">
			<rect width="138" height="138" fill="white" />
		</clipPath>
	</defs>
</svg>