<svg width="800" height="800" viewBox="0 0 800 800" fill="none" xmlns="http://www.w3.org/2000/svg">
	<g opacity="0.27" clip-path="url(#clip0_624_780)">
		<path opacity="0.05"
			d="M70.7007 630.578C198.045 812.445 448.711 856.644 630.578 729.299C812.444 601.955 856.643 351.289 729.299 169.422C601.954 -12.4446 351.289 -56.6437 169.422 70.7009C-12.4448 198.045 -56.6439 448.711 70.7007 630.578Z"
			stroke="#E1E1E1" stroke-width="9" stroke-linecap="round" stroke-dasharray="20 27" />
		<path opacity="0.14"
			d="M193.937 705.5C362.66 819.306 591.695 774.786 705.5 606.063C819.305 437.339 774.786 208.305 606.062 94.4997C437.339 -19.3056 208.305 25.2142 94.4994 193.937C-19.3058 362.661 25.214 591.695 193.937 705.5Z"
			stroke="#E1E1E1" stroke-width="8" stroke-linecap="round" stroke-dasharray="42 20" />
		<path opacity="0.22"
			d="M530.895 91.6308C360.587 19.3396 163.922 98.7975 91.6308 269.105C19.3395 439.413 98.7974 636.078 269.105 708.369C439.413 780.66 636.078 701.202 708.369 530.895C780.66 360.587 701.202 163.922 530.895 91.6308Z"
			stroke="#E1E1E1" stroke-width="8" stroke-linecap="round" stroke-dasharray="39 26" />
		<path opacity="0.31"
			d="M568.596 150.045C430.55 56.9318 243.158 93.3571 150.045 231.403C56.9316 369.45 93.3569 556.841 231.403 649.955C369.449 743.068 556.841 706.643 649.955 568.597C743.068 430.55 706.643 243.159 568.596 150.045Z"
			stroke="#E1E1E1" stroke-width="7" stroke-linecap="round" stroke-dasharray="12 37" />
		<path opacity="0.4"
			d="M549.864 177.818C427.156 95.0505 260.585 127.429 177.818 250.136C95.0505 372.844 127.429 539.415 250.136 622.182C372.844 704.95 539.415 672.571 622.182 549.864C704.949 427.156 672.571 260.585 549.864 177.818Z"
			stroke="#E1E1E1" stroke-width="7" stroke-linecap="round" stroke-dasharray="36 30" />
		<path opacity="0.48"
			d="M537.836 210.285C433.059 134.161 286.41 157.388 210.286 262.164C134.161 366.941 157.388 513.59 262.164 589.714C366.941 665.839 513.59 642.612 589.715 537.836C665.839 433.059 642.612 286.41 537.836 210.285Z"
			stroke="#E1E1E1" stroke-width="6" stroke-linecap="round" stroke-dasharray="22 47" />
		<path opacity="0.57"
			d="M438.352 202.693C329.383 181.511 223.874 252.678 202.693 361.647C181.511 470.617 252.677 576.126 361.647 597.307C470.617 618.489 576.125 547.322 597.307 438.353C618.488 329.383 547.322 223.874 438.352 202.693Z"
			stroke="#E1E1E1" stroke-width="6" stroke-linecap="round" stroke-dasharray="24 13" />
		<path opacity="0.65"
			d="M271.688 292.333C212.225 363.198 221.468 468.85 292.333 528.312C363.198 587.775 468.85 578.532 528.313 507.667C587.775 436.802 578.532 331.15 507.667 271.688C436.802 212.225 331.15 221.468 271.688 292.333Z"
			stroke="#E1E1E1" stroke-width="5" stroke-linecap="round" stroke-dasharray="14 36" />
		<path opacity="0.74"
			d="M498.001 308.612C447.529 254.488 362.737 251.527 308.612 301.999C254.487 352.471 251.526 437.263 301.998 491.388C352.471 545.512 437.263 548.473 491.388 498.001C545.512 447.529 548.473 362.737 498.001 308.612Z"
			stroke="#E1E1E1" stroke-width="5" stroke-linecap="round" stroke-dasharray="21 21" />
		<path opacity="0.83"
			d="M324.151 465.934C360.566 507.824 424.044 512.263 465.934 475.848C507.823 439.434 512.262 375.956 475.848 334.066C439.434 292.176 375.956 287.737 334.066 324.152C292.176 360.566 287.737 424.044 324.151 465.934Z"
			stroke="#E1E1E1" stroke-width="4" stroke-linecap="round" stroke-dasharray="23 51" />
		<path opacity="0.91"
			d="M333.163 404.674C335.744 441.587 367.761 469.418 404.674 466.837C441.587 464.256 469.418 432.239 466.837 395.326C464.256 358.413 432.239 330.582 395.326 333.163C358.413 335.744 330.582 367.761 333.163 404.674Z"
			stroke="#E1E1E1" stroke-width="4" stroke-linecap="round" stroke-dasharray="14 22" />
		<path
			d="M402.337 433.418C420.793 432.128 434.709 416.12 433.418 397.663C432.128 379.207 416.119 365.291 397.663 366.582C379.207 367.872 365.291 383.88 366.581 402.337C367.872 420.793 383.88 434.709 402.337 433.418Z"
			stroke="#E1E1E1" stroke-width="3" stroke-linecap="round" stroke-dasharray="44 13" />
	</g>
	<defs>
		<clipPath id="clip0_624_780">
			<rect width="800" height="800" fill="white" />
		</clipPath>
	</defs>
</svg>