<svg width="48" height="48" viewBox="0 0 48 48" fill="none" xmlns="http://www.w3.org/2000/svg">
<path d="M14.8482 22.8537C15.2449 22.1614 15.0018 21.2848 14.3052 20.8957C13.6086 20.5066 12.7223 20.7524 12.3256 21.4446L7.6687 29.5709C7.27198 30.2632 7.51506 31.1398 8.21164 31.5289C8.90823 31.918 9.79452 31.6723 10.1912 30.98L14.8482 22.8537Z" fill="#AED947"/>
<path d="M24.8862 16.6228C25.283 15.9305 25.0399 15.0539 24.3433 14.6647C23.6467 14.2756 22.7604 14.5214 22.3637 15.2137L17.7068 23.3399C17.3101 24.0322 17.5531 24.9088 18.2497 25.298C18.9463 25.6871 19.8326 25.4413 20.2293 24.749L24.8862 16.6228Z" fill="#AED947"/>
<path d="M40.3316 16.6231C40.7283 15.9309 40.4852 15.0542 39.7886 14.6651C39.092 14.276 38.2057 14.5218 37.809 15.214L33.1521 23.3403C32.7554 24.0326 32.9985 24.9092 33.695 25.2983C34.3916 25.6874 35.2779 25.4417 35.6746 24.7494L40.3316 16.6231Z" fill="#AED947"/>
<path d="M30.2915 22.8537C30.6882 22.1614 30.4452 21.2848 29.7486 20.8957C29.052 20.5066 28.1657 20.7524 27.769 21.4446L23.1121 29.5709C22.7153 30.2632 22.9584 31.1398 23.655 31.5289C24.3516 31.918 25.2379 31.6723 25.6346 30.98L30.2915 22.8537Z" fill="#AED947"/>
</svg>
