<svg width="48" height="48" viewBox="0 0 48 48" fill="none" xmlns="http://www.w3.org/2000/svg">
	<path
		d="M14.9038 29.3471V18.8639H15.4702V20.5151C15.5374 20.4431 15.5998 20.3663 15.6574 20.2847C16.1326 19.3007 17.1358 18.6767 18.2254 18.6911C19.5214 18.6527 20.5774 19.1327 21.1966 20.2847C21.9982 21.7391 22.0414 23.4911 21.3214 24.9839C20.7454 26.2751 19.3198 26.9183 17.7934 26.6831C16.8286 26.6015 15.9694 26.0351 15.5182 25.1807V29.3519L14.9038 29.3471ZM15.4702 22.5695L15.5998 23.7983C15.8254 25.1999 16.651 26.0255 17.9518 26.1839C19.2094 26.3903 20.443 25.6799 20.8894 24.4847C21.3934 23.2799 21.3598 21.9167 20.7886 20.7359C20.3134 19.6703 19.1854 19.0463 18.0286 19.2095C16.9438 19.2863 16.0318 20.0447 15.7486 21.0959C15.6286 21.5855 15.5374 22.0751 15.4702 22.5695ZM33.4414 23.9951C33.2638 25.5215 31.9822 26.6783 30.4462 26.7071C28.0606 26.8271 26.9422 25.2431 26.7646 23.4143C26.6398 22.4207 26.803 21.4127 27.2302 20.5103C27.8398 19.2383 29.203 18.5039 30.5998 18.7007C31.9294 18.8159 33.0334 19.7615 33.3502 21.0575C33.4702 21.6335 33.5614 22.2143 33.619 22.7999H27.3502C27.235 24.4559 28.123 25.7903 29.3854 26.1119C30.955 26.5007 32.299 25.8191 32.7886 24.3215C32.899 23.9423 33.0958 23.8895 33.4414 23.9951ZM27.3454 22.2719H32.947C32.9134 20.5055 31.8142 19.2239 30.3214 19.2095C28.6414 19.1855 27.4174 20.4143 27.3454 22.2719ZM34.5982 24.0335H35.1454C35.1886 24.8591 35.6878 25.5887 36.4366 25.9295C37.3774 26.3519 38.4574 26.3231 39.3694 25.8527C39.8734 25.6271 40.1854 25.1087 40.1422 24.5567C40.171 24.0239 39.8446 23.5343 39.3358 23.3615C38.731 23.1359 38.0878 23.0111 37.4734 22.8143C36.835 22.6319 36.2062 22.4015 35.6014 22.1279C34.6078 21.6431 34.5502 19.7567 35.6734 19.1615C36.8398 18.5039 38.2654 18.4799 39.451 19.1039C40.1758 19.5023 40.579 20.3135 40.459 21.1343H39.9886C39.9886 21.1103 39.9454 21.0911 39.9454 21.0671C39.8878 19.5647 38.6254 19.0943 37.2718 19.2287C36.8638 19.2719 36.475 19.3967 36.1102 19.5791C35.6638 19.7855 35.3902 20.2511 35.4382 20.7407C35.4382 21.2303 35.7502 21.6671 36.211 21.8303C36.8014 22.0463 37.4302 22.1855 38.0398 22.3583L39.5182 22.7471C40.2046 22.9727 40.6846 23.6015 40.7182 24.3215C40.8382 25.1135 40.4302 25.8959 39.715 26.2559C38.4238 26.9855 36.2926 26.7935 35.3422 25.8671C34.867 25.3871 34.5934 24.7199 34.5982 24.0335ZM47.6926 21.1343H47.179C47.179 21.0623 47.1502 20.9999 47.1454 20.9423C47.1262 20.1455 46.555 19.4735 45.7726 19.3247C45.0574 19.1183 44.2942 19.1567 43.603 19.4303C43.0414 19.5935 42.6526 20.1023 42.6478 20.6879C42.6286 21.2639 43.0174 21.7775 43.579 21.9119L45.931 22.5167C46.1854 22.5791 46.435 22.6559 46.6798 22.7471C47.4286 23.0207 47.9422 23.7167 47.9614 24.5135C47.9854 25.3103 47.515 26.0399 46.7806 26.3519C45.6766 26.8559 44.4094 26.8655 43.2958 26.3855C42.3694 25.9871 41.7886 25.0511 41.8414 24.0383H42.3454C42.5326 24.9503 43.1614 25.7087 44.0206 26.0687C44.8798 26.4287 45.859 26.3375 46.6414 25.8335C47.1214 25.5839 47.4094 25.0799 47.3854 24.5423C47.4094 24.0095 47.0734 23.5247 46.5694 23.3519C45.9646 23.1263 45.3214 23.0063 44.707 22.8047C44.0638 22.6271 43.435 22.3967 42.8206 22.1279C41.851 21.6527 41.7742 19.7807 42.8782 19.1855C44.0638 18.4991 45.5182 18.4799 46.7182 19.1423C47.4094 19.5551 47.7886 20.3327 47.6878 21.1295L47.6926 21.1343ZM13.9678 26.5151C13.5502 26.6735 13.075 26.4959 12.8686 26.0975L10.867 23.3279L10.579 22.9391L8.2558 26.0975C8.059 26.4767 7.6126 26.6543 7.2094 26.5055L10.1998 22.4927L7.4158 18.8639C7.8286 18.7151 8.2894 18.8783 8.5198 19.2527L10.5934 22.0559L12.6814 19.2623C12.8782 18.8879 13.3246 18.7199 13.7182 18.8735L12.6382 20.3087L11.1742 22.2143C11.0158 22.3583 11.0014 22.6031 11.1454 22.7615C11.155 22.7711 11.1646 22.7807 11.1742 22.7903L13.963 26.5103L13.9678 26.5151ZM26.6734 18.8303V19.3775C25.1278 19.2767 23.7886 20.4479 23.6878 21.9935C23.683 22.0895 23.6782 22.1807 23.683 22.2767C23.683 23.5535 23.683 24.8255 23.683 26.1023V26.5343H23.131V18.8639H23.6782V20.4335C24.3454 19.2911 25.3774 18.8639 26.6734 18.8303ZM0.0430038 22.4495L0.287804 21.2447C0.959804 18.8639 3.6862 17.8751 5.563 19.3487C6.6622 20.2127 6.9358 21.4367 6.883 22.8143H0.686204C0.585404 25.2767 2.3614 26.7647 4.6366 26.0063C5.3854 25.7327 5.947 25.1087 6.1342 24.3359C6.2542 23.9471 6.451 23.8847 6.8158 23.9951C6.691 24.9503 6.139 25.7951 5.3134 26.2895C3.931 27.0431 2.2222 26.8271 1.075 25.7471C0.523004 25.1231 0.187004 24.3407 0.124604 23.5103C0.124604 23.3759 0.0814039 23.2463 0.0478039 23.1215C0.0430039 22.8911 0.0382038 22.6655 0.0430038 22.4495ZM0.695804 22.2815H6.2974C6.2638 20.4959 5.1358 19.2287 3.6334 19.2191C1.963 19.1951 0.763004 20.4335 0.691004 22.2719L0.695804 22.2815Z"
		fill="black" />
</svg>