<svg width="32" height="48" viewBox="0 0 32 48" fill="none" xmlns="http://www.w3.org/2000/svg">
<g clip-path="url(#clip0_225_663)">
<path d="M8.00342 48C12.4194 48 16.0034 44.416 16.0034 40V32H8.00342C3.58742 32 0.00341797 35.584 0.00341797 40C0.00341797 44.416 3.58742 48 8.00342 48Z" fill="#0ACF83"/>
<path d="M0.00341797 24C0.00341797 19.584 3.58742 16 8.00342 16H16.0034V32H8.00342C3.58742 32 0.00341797 28.416 0.00341797 24Z" fill="#A259FF"/>
<path d="M0.00341797 8C0.00341797 3.584 3.58742 0 8.00342 0H16.0034V16H8.00342C3.58742 16 0.00341797 12.416 0.00341797 8Z" fill="#F24E1E"/>
<path d="M16.0034 0H24.0034C28.4194 0 32.0034 3.584 32.0034 8C32.0034 12.416 28.4194 16 24.0034 16H16.0034V0Z" fill="#FF7262"/>
<path d="M32.0034 24C32.0034 28.416 28.4194 32 24.0034 32C19.5874 32 16.0034 28.416 16.0034 24C16.0034 19.584 19.5874 16 24.0034 16C28.4194 16 32.0034 19.584 32.0034 24Z" fill="#1ABCFE"/>
</g>
<defs>
<clipPath id="clip0_225_663">
<rect width="32.0064" height="48" fill="white"/>
</clipPath>
</defs>
</svg>
