<svg width="50" height="48" viewBox="0 0 50 48" fill="none" xmlns="http://www.w3.org/2000/svg">
	<g clip-path="url(#clip0_225_649)">
		<path
			d="M16.4663 38.6496C16.4663 38.8481 16.238 39.0069 15.9501 39.0069C15.6226 39.0367 15.3943 38.8778 15.3943 38.6496C15.3943 38.4511 15.6226 38.2922 15.9104 38.2922C16.2082 38.2625 16.4663 38.4213 16.4663 38.6496ZM13.3795 38.2029C13.31 38.4014 13.5085 38.6297 13.8063 38.6893C14.0643 38.7885 14.3621 38.6893 14.4216 38.4908C14.4812 38.2922 14.2926 38.064 13.9948 37.9746C13.7368 37.9052 13.4489 38.0044 13.3795 38.2029ZM17.7665 38.0342C17.4787 38.1037 17.2801 38.2923 17.3099 38.5205C17.3397 38.719 17.5978 38.8481 17.8955 38.7786C18.1834 38.7091 18.3819 38.5205 18.3521 38.322C18.3223 38.1334 18.0543 38.0044 17.7665 38.0342ZM24.2974 0C10.5309 0 0 10.4515 0 24.218C0 35.2253 6.92794 44.6445 16.8236 47.9596C18.094 48.1879 18.5407 47.4038 18.5407 46.7586C18.5407 46.1433 18.5109 42.7488 18.5109 40.6644C18.5109 40.6644 11.5631 42.1532 10.1041 37.7066C10.1041 37.7066 8.97258 34.8184 7.34481 34.0739C7.34481 34.0739 5.07189 32.5157 7.50361 32.5454C7.50361 32.5454 9.97504 32.7439 11.3348 35.1062C13.5085 38.9374 17.1511 37.8357 18.5705 37.1806C18.7987 35.5925 19.4439 34.4908 20.1585 33.8357C14.6102 33.2204 9.01228 32.4164 9.01228 22.8682C9.01228 20.1387 9.76661 18.769 11.3547 17.0221C11.0966 16.3769 10.253 13.7169 11.6127 10.2827C13.6871 9.63758 18.4613 12.9626 18.4613 12.9626C20.4464 12.4068 22.5803 12.1189 24.6944 12.1189C26.8085 12.1189 28.9425 12.4068 30.9276 12.9626C30.9276 12.9626 35.7017 9.62765 37.7761 10.2827C39.1359 13.7268 38.2923 16.3769 38.0342 17.0221C39.6223 18.7789 40.5949 20.1486 40.5949 22.8682C40.5949 32.4462 34.7489 33.2104 29.2006 33.8357C30.1137 34.6198 30.8879 36.1087 30.8879 38.4411C30.8879 41.786 30.8581 45.9249 30.8581 46.7388C30.8581 47.3839 31.3147 48.168 32.5752 47.9398C42.5006 44.6445 49.2301 35.2253 49.2301 24.218C49.2301 10.4515 38.064 0 24.2974 0ZM9.6475 34.2328C9.51847 34.332 9.54825 34.5603 9.71698 34.7489C9.87579 34.9077 10.1041 34.9772 10.2331 34.8481C10.3621 34.7489 10.3324 34.5206 10.1636 34.332C10.0048 34.1732 9.77653 34.1037 9.6475 34.2328ZM8.57556 33.4288C8.50608 33.5578 8.60533 33.7166 8.80384 33.8159C8.96265 33.9151 9.16116 33.8854 9.23064 33.7464C9.30011 33.6174 9.20086 33.4586 9.00235 33.3593C8.80384 33.2998 8.64504 33.3295 8.57556 33.4288ZM11.7914 36.9622C11.6326 37.0913 11.6921 37.389 11.9204 37.5776C12.1487 37.8059 12.4365 37.8357 12.5656 37.6769C12.6946 37.5478 12.6351 37.2501 12.4365 37.0615C12.2182 36.8332 11.9204 36.8034 11.7914 36.9622ZM10.6599 35.5032C10.5011 35.6025 10.5011 35.8605 10.6599 36.0888C10.8187 36.3171 11.0867 36.4163 11.2157 36.3171C11.3745 36.1881 11.3745 35.93 11.2157 35.7017C11.0768 35.4734 10.8187 35.3742 10.6599 35.5032Z"
			fill="#0D1117" />
	</g>
	<defs>
		<clipPath id="clip0_225_649">
			<rect width="49.5" height="48" fill="#0D1117" />
		</clipPath>
	</defs>
</svg>