<svg width="36" height="48" viewBox="0 0 36 48" fill="none" xmlns="http://www.w3.org/2000/svg">
<g clip-path="url(#clip0_225_596)">
<path fill-rule="evenodd" clip-rule="evenodd" d="M11.4276 37.106C11.4276 37.106 9.60062 38.1707 12.7279 38.5311C16.5165 38.9642 18.4528 38.9021 22.6278 38.1102C22.6278 38.1102 23.7255 38.7999 25.2585 39.3974C15.8991 43.4173 4.07636 39.1645 11.4276 37.106Z" fill="#5382A1"/>
<path fill-rule="evenodd" clip-rule="evenodd" d="M10.2841 31.8601C10.2841 31.8601 8.23494 33.3803 11.3645 33.7047C15.4116 34.1231 18.6077 34.1573 24.1381 33.0901C24.1381 33.0901 24.9031 33.8673 26.1059 34.2923C14.7898 37.6084 2.18582 34.5538 10.2841 31.8601Z" fill="#5382A1"/>
<path fill-rule="evenodd" clip-rule="evenodd" d="M19.9255 22.9615C22.2317 25.6223 19.3196 28.0168 19.3196 28.0168C19.3196 28.0168 25.1753 24.9873 22.486 21.1937C19.9744 17.656 18.0482 15.8982 28.4755 9.83765C28.4755 9.83765 12.1081 13.9343 19.9255 22.9615Z" fill="#E76F00"/>
<path fill-rule="evenodd" clip-rule="evenodd" d="M32.304 40.9861C32.304 40.9861 33.6561 42.1025 30.815 42.9662C25.4127 44.6063 8.32986 45.1016 3.58433 43.0316C1.87843 42.2878 5.07747 41.2557 6.08377 41.0391C7.13323 40.8111 7.73296 40.8536 7.73296 40.8536C5.83583 39.5142 -4.52932 43.4834 2.46798 44.6202C21.5506 47.7215 37.2538 43.2236 32.304 40.9861Z" fill="#5382A1"/>
<path fill-rule="evenodd" clip-rule="evenodd" d="M12.3064 26.425C12.3064 26.425 3.61696 28.4934 9.22923 29.2445C11.5989 29.5624 16.3228 29.4905 20.723 29.121C24.319 28.817 27.9299 28.1707 27.9299 28.1707C27.9299 28.1707 26.6619 28.7149 25.7445 29.3426C16.9206 31.6684 -0.125627 30.5864 4.78176 28.2075C8.93194 26.197 12.3064 26.425 12.3064 26.425Z" fill="#5382A1"/>
<path fill-rule="evenodd" clip-rule="evenodd" d="M27.8941 35.1567C36.8641 30.4855 32.7167 25.9964 29.8219 26.6012C29.1124 26.7492 28.7961 26.8775 28.7961 26.8775C28.7961 26.8775 29.0595 26.4639 29.5625 26.285C35.2894 24.2672 39.6937 32.236 27.7139 35.3922C27.7139 35.3922 27.8527 35.2679 27.8941 35.1567Z" fill="#5382A1"/>
<path fill-rule="evenodd" clip-rule="evenodd" d="M22.4861 0.0515137C22.4861 0.0515137 27.4538 5.03167 17.7744 12.6898C10.0126 18.8328 16.0045 22.3355 17.7712 26.3374C13.2405 22.2407 9.91556 18.6344 12.1462 15.2779C15.4202 10.351 24.4904 7.9622 22.4861 0.0515137Z" fill="#E76F00"/>
<path fill-rule="evenodd" clip-rule="evenodd" d="M13.1878 47.8149C21.7978 48.3672 35.0194 47.5084 35.3326 43.4255C35.3326 43.4255 34.7307 44.9733 28.2169 46.2025C20.868 47.5885 11.8043 47.4267 6.42847 46.5384C6.42847 46.5384 7.52896 47.4512 13.1878 47.8149Z" fill="#5382A1"/>
</g>
<defs>
<clipPath id="clip0_225_596">
<rect width="35.4375" height="48" fill="white"/>
</clipPath>
</defs>
</svg>
