<svg width="48" height="48" viewBox="0 0 48 48" fill="none" xmlns="http://www.w3.org/2000/svg">
<path d="M33.3024 9.6191C33.312 9.6191 33.3216 9.6287 33.3216 9.6287L33.5424 9.2927C33.5328 9.2831 33.5232 9.2831 33.5232 9.2735L33.3024 9.6191ZM30.6624 8.2271C31.1232 8.4191 31.5648 8.6303 32.016 8.8703L32.208 8.5151C31.7568 8.2751 31.296 8.0543 30.8256 7.8623L30.6624 8.2271ZM27.8304 7.3055C28.3104 7.4207 28.8 7.5455 29.2704 7.6991L29.3952 7.3151C28.9056 7.1615 28.416 7.0271 27.9168 6.9119L27.8304 7.3055ZM24.8736 6.8927C25.3728 6.9215 25.8624 6.9695 26.3616 7.0367L26.4192 6.6431C25.9104 6.5759 25.4016 6.5279 24.8928 6.4991L24.8736 6.8927ZM21.888 7.0079C22.3872 6.9503 22.8768 6.9023 23.376 6.8927L23.3568 6.4895C22.848 6.5087 22.3392 6.5471 21.8304 6.6143L21.888 7.0079ZM18.9696 7.6319C19.4496 7.4879 19.9296 7.3631 20.4192 7.2575L20.3328 6.8639C19.8336 6.9695 19.344 7.0943 18.8544 7.2479L18.9696 7.6319ZM16.2048 8.7551C16.2144 8.7551 16.224 8.7455 16.224 8.7455C16.6656 8.5247 17.1072 8.3231 17.5584 8.1311L17.4048 7.7567C16.944 7.9487 16.4832 8.1503 16.0416 8.3807C16.032 8.3807 16.0224 8.3903 16.0224 8.3903L16.2048 8.7551ZM13.6704 10.3295C14.064 10.0319 14.4768 9.7535 14.8992 9.4847L14.688 9.1391C14.256 9.4079 13.8336 9.6959 13.4304 10.0031L13.6704 10.3295ZM11.4528 12.3359C11.7888 11.9711 12.144 11.6255 12.5184 11.2895L12.2496 10.9919C11.8656 11.3375 11.5104 11.6927 11.1648 12.0671L11.4528 12.3359ZM9.62878 14.6879C9.89758 14.2751 10.1856 13.8623 10.4928 13.4687L10.176 13.2191C9.85918 13.6223 9.57118 14.0351 9.29278 14.4671L9.62878 14.6879ZM8.22718 17.3279C8.41918 16.8671 8.63038 16.4159 8.87038 15.9743L8.51518 15.7823C8.27518 16.2335 8.05438 16.6943 7.86238 17.1647L8.22718 17.3279ZM7.30558 20.1599C7.42078 19.6703 7.54558 19.1903 7.69918 18.7199L7.31518 18.5951C7.16158 19.0847 7.01758 19.5743 6.91198 20.0639L7.30558 20.1599ZM6.89278 23.1167C6.92158 22.6175 6.96958 22.1183 7.03678 21.6287L6.64318 21.5711C6.57598 22.0799 6.52798 22.5791 6.49918 23.0975L6.89278 23.1167ZM6.99838 26.1023C6.94078 25.6031 6.90238 25.1135 6.88318 24.6143L6.47998 24.6239C6.49918 25.1327 6.53758 25.6415 6.60478 26.1503L6.99838 26.1023ZM7.62238 29.0207C7.47838 28.5407 7.35358 28.0607 7.24798 27.5711L6.85438 27.6575C6.95998 28.1567 7.08478 28.6463 7.23838 29.1359L7.62238 29.0207ZM8.74558 31.7855C8.74558 31.7759 8.73598 31.7759 8.73598 31.7663C8.50558 31.3247 8.30398 30.8735 8.12158 30.4223L7.74718 30.5759C7.93918 31.0367 8.14078 31.4975 8.37118 31.9487C8.37118 31.9583 8.38078 31.9583 8.38078 31.9679L8.74558 31.7855ZM10.3296 34.3199C10.032 33.9263 9.75358 33.5135 9.48478 33.0911L9.13918 33.3023C9.40798 33.7343 9.69598 34.1567 10.0032 34.5599L10.3296 34.3199ZM12.3264 36.5375C11.9616 36.2015 11.616 35.8463 11.28 35.4719L10.9824 35.7407C11.328 36.1247 11.6832 36.4799 12.0576 36.8255L12.3264 36.5375ZM14.6784 38.3711C14.2656 38.1023 13.8528 37.8143 13.4592 37.5071L13.2096 37.8239C13.6128 38.1407 14.0256 38.4287 14.4576 38.7071L14.6784 38.3711ZM17.3184 39.7631C16.8576 39.5711 16.4064 39.3599 15.9648 39.1199L15.7728 39.4751C16.224 39.7151 16.6848 39.9359 17.1552 40.1279L17.3184 39.7631ZM20.16 40.6847C19.6704 40.5695 19.1904 40.4351 18.72 40.2815L18.5952 40.6655C19.0752 40.8191 19.5744 40.9631 20.064 41.0783L20.16 40.6847ZM23.1168 41.1071C22.6176 41.0783 22.1184 41.0303 21.6288 40.9631L21.5712 41.3567C22.08 41.4239 22.5792 41.4815 23.0976 41.5007L23.1168 41.1071ZM26.0928 41.0015C25.5936 41.0591 25.104 41.0975 24.6048 41.1167L24.6144 41.5199C25.1232 41.5007 25.632 41.4623 26.1408 41.3951L26.0928 41.0015ZM29.0112 40.3775C28.5312 40.5215 28.0512 40.6463 27.5616 40.7519L27.648 41.1455C28.1472 41.0399 28.6368 40.9151 29.1264 40.7615L29.0112 40.3775ZM31.7856 39.2543C31.3344 39.4847 30.8832 39.6863 30.4224 39.8783L30.576 40.2527C31.0464 40.0607 31.5072 39.8495 31.9584 39.6191H31.968L31.7856 39.2543ZM34.3104 37.6703C33.9168 37.9679 33.504 38.2463 33.0816 38.5151L33.2928 38.8607C33.7248 38.5919 34.1472 38.3039 34.5504 37.9967L34.3104 37.6703ZM36.528 35.6735C36.192 36.0383 35.8368 36.3839 35.4624 36.7199L35.7312 37.0175C36.1152 36.6719 36.4704 36.3167 36.8256 35.9423L36.528 35.6735ZM38.3616 33.3215C38.0928 33.7343 37.8048 34.1471 37.4976 34.5407L37.8144 34.7903C38.1312 34.3871 38.4288 33.9743 38.6976 33.5423L38.3616 33.3215ZM39.7632 30.6911C39.5712 31.1519 39.3504 31.6031 39.12 32.0351L39.4752 32.2271C39.7152 31.7759 39.936 31.3151 40.128 30.8447L39.7632 30.6911ZM40.6848 27.8495C40.5696 28.3391 40.4352 28.8191 40.2816 29.2895L40.6656 29.4143C40.8192 28.9343 40.9632 28.4351 41.0784 27.9455L40.6848 27.8495ZM41.1072 24.8927C41.0784 25.3919 41.0304 25.8911 40.9632 26.3807L41.3568 26.4383C41.424 25.9391 41.4816 25.4303 41.5008 24.9119L41.1072 24.8927ZM41.0016 21.9071C41.0592 22.4063 41.0976 22.8959 41.1168 23.3951L41.52 23.3855C41.5008 22.8767 41.4624 22.3679 41.4048 21.8591L41.0016 21.9071ZM40.3776 18.9887C40.5216 19.4687 40.6464 19.9487 40.752 20.4383L41.1456 20.3519C41.04 19.8527 40.9152 19.3631 40.7616 18.8735L40.3776 18.9887ZM39.2544 16.2239C39.4848 16.6751 39.6864 17.1263 39.8784 17.5871L40.2528 17.4335C40.0608 16.9631 39.8496 16.5023 39.6192 16.0415L39.2544 16.2239Z" fill="#808080"/>
<path d="M24 37.4016C31.4015 37.4016 37.4016 31.4015 37.4016 24C37.4016 16.5985 31.4015 10.5984 24 10.5984C16.5985 10.5984 10.5984 16.5985 10.5984 24C10.5984 31.4015 16.5985 37.4016 24 37.4016Z" fill="#000080"/>
<path d="M29.5487 22.3775C31.7172 22.3775 33.4751 20.6195 33.4751 18.4511C33.4751 16.2826 31.7172 14.5247 29.5487 14.5247C27.3802 14.5247 25.6223 16.2826 25.6223 18.4511C25.6223 20.6195 27.3802 22.3775 29.5487 22.3775Z" fill="white"/>
<path d="M37.4015 14.5247C39.57 14.5247 41.3279 12.7668 41.3279 10.5983C41.3279 8.42978 39.57 6.67188 37.4015 6.67188C35.233 6.67188 33.4751 8.42978 33.4751 10.5983C33.4751 12.7668 35.233 14.5247 37.4015 14.5247Z" fill="#000080"/>
<path d="M20.3711 30.7006V29.7118H16.0319V21.907H14.9087V30.7006H20.3711Z" fill="white"/>
<path d="M26.4 30.7006V24.3838H25.4016V27.8686C25.4016 29.155 24.7296 29.9998 23.6736 29.9998C22.8768 29.9998 22.368 29.5198 22.368 28.7614V24.3838H21.3696V29.1646C21.3696 30.211 22.1568 30.8926 23.3856 30.8926C24.3168 30.8926 24.9024 30.5662 25.4976 29.731V30.7102L26.4 30.7006Z" fill="white"/>
<path d="M33.7537 30.6719V29.9135C33.6481 29.9423 33.6001 29.9423 33.5329 29.9423C33.1873 29.9423 32.9857 29.7599 32.9857 29.4431V25.9199C32.9857 24.7967 32.1697 24.1919 30.6145 24.1919C29.0785 24.1919 28.1377 24.7871 28.0801 26.2463H29.0977C29.1841 25.4783 29.6449 25.1231 30.5857 25.1231C31.4881 25.1231 31.9969 25.4591 31.9969 26.0639V26.3327C31.9969 26.7551 31.7473 26.9375 30.9505 27.0335C29.5297 27.2159 29.3089 27.2639 28.9249 27.4175C28.1857 27.7151 27.8113 28.2815 27.8113 29.0591C27.8113 30.2015 28.6081 30.8831 29.8849 30.8831C30.6913 30.8831 31.4785 30.5471 32.0353 29.9519C32.1409 30.4319 32.5825 30.7871 33.0721 30.7871C33.2641 30.7775 33.4273 30.7583 33.7537 30.6719ZM31.9873 28.5119C31.9873 29.4143 31.0753 29.9999 30.0961 29.9999C29.3089 29.9999 28.8577 29.7215 28.8577 29.0303C28.8577 28.3679 29.2993 28.0799 30.3745 27.9167C31.4401 27.7727 31.6513 27.7247 31.9873 27.5711V28.5119Z" fill="white"/>
</svg>
