<svg width="71" height="48" viewBox="0 0 71 48" fill="none" xmlns="http://www.w3.org/2000/svg">
<g clip-path="url(#clip0_225_512)">
<path d="M28.7534 31.7135C27.6459 37.7376 26.1856 42.1203 24.3727 44.8431C22.9599 46.9477 21.4125 48 19.7274 48C19.2778 48 18.7246 47.8643 18.0666 47.595V46.1415C18.3873 46.1899 18.7643 46.2142 19.1974 46.2142C19.9832 46.2142 20.617 45.9971 21.0995 45.5621C21.677 45.032 21.9658 44.4371 21.9658 43.7772C21.9658 43.3266 21.74 42.4013 21.2914 41.0021L18.3069 31.7096H20.9784L23.1198 38.6601C23.6014 40.2375 23.802 41.3393 23.7215 41.9672C24.894 38.8296 25.7118 35.4111 26.1769 31.7154H28.7524M16.9601 43.7307H14.2411C14.1452 39.1281 13.8807 34.8016 13.4466 30.7465H13.4243L9.28385 43.7307H7.21219L3.09696 30.7465H3.07273C2.76751 34.6398 2.57565 38.9663 2.49523 43.7307H0.015625C0.175506 37.9382 0.577629 32.51 1.21812 27.4423H4.58821L8.51158 39.4091H8.5358L12.4834 27.4423H15.7081C16.4135 33.3782 16.8312 38.8083 16.9581 43.7307" fill="#00758F"/>
<path d="M64.9544 43.7287H57.2288V27.4402H59.8286V41.7229H64.9544V43.7267M45.5265 40.4681C44.8676 39.4061 44.5391 37.7026 44.5391 35.3529C44.5391 31.2512 45.7833 29.1989 48.2697 29.1989C49.57 29.1989 50.5245 29.6902 51.134 30.6708C51.7909 31.7328 52.1204 33.4227 52.1204 35.7395C52.1204 39.8741 50.8762 41.9428 48.3898 41.9428C47.0904 41.9428 46.135 41.4525 45.5265 40.47M55.2017 44.1211L52.2153 42.6444C52.4808 42.4254 52.7337 42.189 52.9614 41.9176C54.2308 40.4225 54.8645 38.2104 54.8645 35.2812C54.8645 29.8917 52.7541 27.196 48.5342 27.196C46.4645 27.196 44.8511 27.8792 43.6961 29.2483C42.4268 30.7444 41.794 32.9498 41.794 35.8606C41.794 38.7239 42.356 40.8246 43.4781 42.1589C44.5013 43.3653 46.0488 43.969 48.1214 43.969C48.8947 43.969 49.6039 43.874 50.2483 43.6831L54.1368 45.9524L55.1969 44.1211M40.6623 39.2132C40.6623 40.595 40.1565 41.7287 39.1468 42.6163C38.1371 43.499 36.7796 43.9428 35.081 43.9428C33.4919 43.9428 31.9512 43.4321 30.459 42.4215L31.1576 41.0223C32.4415 41.6657 33.6033 41.9864 34.6459 41.9864C35.6246 41.9864 36.3901 41.7684 36.9443 41.3372C37.4966 40.9022 37.829 40.2966 37.829 39.5282C37.829 38.5611 37.1556 37.7346 35.9221 37.0408C34.7789 36.403 33.64 35.7577 32.5055 35.1048C31.272 34.2017 30.6528 33.2337 30.6528 31.6388C30.6528 30.319 31.114 29.2522 32.0355 28.4412C32.9589 27.6272 34.1508 27.2203 35.61 27.2203C37.1187 27.2203 38.4898 27.6243 39.7253 28.4295L39.0974 29.8278C38.0412 29.3782 36.9986 29.1524 35.9705 29.1524C35.1372 29.1524 34.4938 29.3539 34.0461 29.757C33.5955 30.1572 33.3175 30.6727 33.3175 31.3006C33.3175 32.2657 34.0054 33.1029 35.2738 33.8103C36.4269 34.4372 38.7611 35.7715 38.7611 35.7715C40.0305 36.6726 40.6632 37.6329 40.6632 39.2152M66.8052 43.7287H67.2363V42.0717H67.7993V41.7326H66.2199V42.0717H66.8052V43.7287ZM70.0832 43.7287H70.4892V41.7326H69.8787L69.3817 43.093L68.84 41.7326H68.2518V43.7287H68.6365V42.2093H68.6578L69.2247 43.7287H69.5173L70.0832 42.2093V43.7287Z" fill="#F29111"/>
<path d="M43.3462 0.0096287C42.6592 -6.103e-05 42.0604 0.258654 41.7513 1.0193C41.2213 2.29931 42.5362 3.55801 42.9887 4.20819C43.322 4.6607 43.7542 5.17328 43.9887 5.68393C44.1263 6.01823 44.166 6.37384 44.3036 6.72752C44.6175 7.59378 44.9111 8.55791 45.3239 9.36603C45.539 9.77978 45.7745 10.2129 46.0497 10.585C46.2076 10.803 46.4818 10.8999 46.5409 11.2555C46.2667 11.648 46.2454 12.239 46.0894 12.7322C45.382 14.956 45.6572 17.7118 46.6582 19.3455C46.9721 19.8367 47.7182 20.9201 48.7201 20.5063C49.6039 20.1526 49.4081 19.0306 49.662 18.0471C49.7211 17.8087 49.6814 17.6527 49.7996 17.4947V17.5354C50.0738 18.0858 50.35 18.6158 50.6048 19.1691C51.2143 20.1323 52.2734 21.1361 53.1571 21.8047C53.627 22.1603 54.0001 22.7698 54.5892 22.9869V22.9268H54.5505C54.4322 22.7504 54.2559 22.671 54.0989 22.5344C53.7452 22.1797 53.3538 21.7466 53.0786 21.3522C52.255 20.2515 51.5273 19.0306 50.881 17.7709C50.566 17.1595 50.2918 16.4909 50.036 15.8814C49.9188 15.6459 49.9188 15.2903 49.7221 15.1731C49.4265 15.6052 48.9953 15.9802 48.7802 16.5093C48.4072 17.3571 48.3684 18.3998 48.2298 19.4821C48.1523 19.5025 48.1911 19.4821 48.1523 19.5209C47.5244 19.3639 47.3084 18.7147 47.0719 18.1643C46.4828 16.7661 46.384 14.521 46.8956 12.9086C47.0312 12.4958 47.6223 11.1974 47.3859 10.803C47.2677 10.4271 46.8752 10.2119 46.6591 9.9164C46.3856 9.51922 46.1494 9.09752 45.9537 8.65674C45.4828 7.55502 45.2464 6.33411 44.7367 5.23239C44.5012 4.71884 44.0875 4.18881 43.7551 3.71692C43.3811 3.18495 42.9703 2.81093 42.6747 2.18207C42.5778 1.96502 42.4402 1.61037 42.5972 1.37491C42.635 1.21697 42.7145 1.15786 42.8724 1.11813C43.1253 0.902053 43.853 1.17627 44.1078 1.29449C44.8346 1.58905 45.4431 1.86618 46.0506 2.27799C46.3248 2.47566 46.6194 2.84969 46.9731 2.94852H47.3859C48.0138 3.08612 48.7211 2.98728 49.3103 3.1646C50.35 3.4989 51.2918 3.99114 52.1367 4.52213C54.7372 6.18488 56.85 8.50769 58.2597 11.2536C58.4961 11.7061 58.5949 12.1198 58.8101 12.5908C59.2228 13.5578 59.7335 14.5413 60.1453 15.4851C60.5571 16.4105 60.9505 17.3552 61.5406 18.1226C61.8333 18.5354 63.0115 18.7525 63.5416 18.9685C63.934 19.1449 64.5425 19.3028 64.8962 19.5189C65.5648 19.9317 66.2295 20.4046 66.8583 20.858C67.1723 21.0945 68.1529 21.5857 68.212 21.9801C66.6423 21.9414 65.4252 22.0983 64.4039 22.5324C64.1103 22.6497 63.6394 22.6497 63.5997 23.0237C63.7576 23.1807 63.776 23.4365 63.9146 23.6535C64.1501 24.0479 64.5609 24.5779 64.9349 24.8551C65.3477 25.17 65.7595 25.4839 66.1917 25.7591C66.9572 26.2339 67.8205 26.5081 68.5657 26.98C68.9988 27.2552 69.43 27.6098 69.8622 27.9054C70.0773 28.0624 70.2139 28.3191 70.4901 28.416V28.356C70.3515 28.1796 70.3127 27.9238 70.1761 27.7261C69.9804 27.5304 69.7837 27.3531 69.587 27.1564C69.0119 26.3942 68.3237 25.7243 67.5463 25.17C66.9175 24.7349 65.5425 24.1438 65.2886 23.4181L65.2489 23.3783C65.6801 23.3386 66.1917 23.1807 66.6045 23.0615C67.2702 22.8842 67.8796 22.9239 68.5666 22.7475C68.8806 22.6681 69.1945 22.5693 69.5104 22.4733V22.2941C69.1548 21.9414 68.9009 21.4675 68.5289 21.1332C67.5289 20.2679 66.4281 19.422 65.2896 18.7118C64.6791 18.3184 63.8943 18.0635 63.247 17.7283C63.0125 17.61 62.6201 17.5519 62.4815 17.3542C62.1288 16.9211 61.9311 16.3514 61.6773 15.8388C61.0969 14.7181 60.56 13.5755 60.0678 12.4134C59.7141 11.646 59.498 10.8796 59.0668 10.1703C57.0436 6.82344 54.846 4.79732 51.4701 2.80899C50.7434 2.39524 49.88 2.21792 48.9585 2.00184C48.4663 1.98149 47.9769 1.9437 47.4857 1.92432C47.1708 1.78479 46.8558 1.41076 46.5816 1.23344C45.882 0.790621 44.4925 0.0251319 43.3482 0.00769043L43.3462 0.0096287ZM48.1892 4.87484C47.8558 4.87484 47.6213 4.91554 47.3849 4.97368V5.01243H47.4227C47.5806 5.32735 47.8558 5.54537 48.0506 5.82056C48.2085 6.13547 48.3461 6.44942 48.5031 6.76434L48.5419 6.72558C48.818 6.52888 48.9556 6.21396 48.9556 5.7411C48.8364 5.60254 48.818 5.46591 48.7192 5.32735C48.6019 5.13162 48.3461 5.03278 48.1892 4.87484Z" fill="#00758F"/>
</g>
<defs>
<clipPath id="clip0_225_512">
<rect width="70.5053" height="48" fill="white"/>
</clipPath>
</defs>
</svg>
