<svg width="44" height="48" viewBox="0 0 44 48" fill="none" xmlns="http://www.w3.org/2000/svg">
<g clip-path="url(#clip0_225_397)">
<path d="M19.8133 0.60936C20.9973 -0.0689376 22.5395 -0.0720014 23.7225 0.60936C29.6739 3.97515 35.6272 7.33566 41.5777 10.7035C42.6969 11.3345 43.4455 12.5811 43.4341 13.8718V34.1217C43.4424 35.4659 42.6198 36.7423 41.4391 37.359C35.5072 40.7062 29.5783 44.0575 23.6475 47.4048C22.439 48.0963 20.8659 48.0431 19.6951 47.2948C17.9167 46.263 16.1353 45.2363 14.3568 44.2054C13.9933 43.9886 13.5836 43.816 13.327 43.4633C13.5539 43.1573 13.9595 43.1191 14.2891 42.9855C15.0314 42.7493 15.7132 42.37 16.3952 42.002C16.5676 41.8839 16.7782 41.9292 16.9435 42.0349C18.4642 42.9076 19.9715 43.8056 21.4973 44.67C21.8228 44.858 22.1524 44.6083 22.4306 44.4531C28.2516 41.1603 34.0798 37.88 39.8998 34.5862C40.1154 34.4824 40.2347 34.2533 40.2171 34.0168C40.2212 27.3368 40.2182 20.6557 40.2192 13.9757C40.2438 13.7074 40.0887 13.4608 39.8464 13.351C33.9351 10.0191 28.0268 6.68204 22.1165 3.34928C22.0141 3.27882 21.8928 3.24101 21.7686 3.24083C21.6443 3.24065 21.5229 3.2781 21.4203 3.34825C15.51 6.68204 9.60274 10.0221 3.69244 13.3539C3.45094 13.4638 3.28887 13.7064 3.31761 13.9757C3.31863 20.6557 3.31761 27.3368 3.31761 34.0179C3.30736 34.1332 3.33268 34.249 3.39014 34.3495C3.44761 34.45 3.53448 34.5305 3.63904 34.5801C5.21623 35.4752 6.79546 36.3641 8.37367 37.2562C9.26277 37.7351 10.3544 38.0197 11.334 37.6528C12.1985 37.3425 12.8044 36.4596 12.7879 35.5409C12.7961 28.8999 12.7838 22.2579 12.794 15.6179C12.7724 15.3231 13.0518 15.0795 13.3382 15.1072C14.096 15.1021 14.8549 15.097 15.6127 15.1093C15.929 15.1021 16.1467 15.4196 16.1076 15.7166C16.1045 22.3997 16.1157 29.0829 16.1025 35.766C16.1045 37.5471 15.3734 39.4851 13.7273 40.3566C11.6995 41.408 9.19305 41.185 7.18967 40.1768C5.45534 39.3105 3.80026 38.288 2.09671 37.3598C0.912879 36.7466 0.0943522 35.465 0.102685 34.1219V13.8718C0.0902706 12.5544 0.868662 11.2851 2.02273 10.6633C7.95361 7.31336 13.8835 3.96085 19.8133 0.60936Z" fill="#8CC84B"/>
<path d="M24.9875 14.6366C27.5742 14.4699 30.3433 14.5378 32.671 15.8132C34.4732 16.7906 35.4724 18.8418 35.5042 20.8458C35.4538 21.1161 35.1715 21.2652 34.9137 21.2466C34.1632 21.2456 33.4125 21.2568 32.662 21.2415C32.3437 21.2538 32.1586 20.96 32.1187 20.6783C31.903 19.7195 31.3806 18.7698 30.4789 18.3074C29.0947 17.6138 27.4898 17.6486 25.9805 17.6631C24.8786 17.7217 23.6938 17.8172 22.7603 18.4657C22.0436 18.9569 21.8259 19.9486 22.0817 20.7472C22.3229 21.3206 22.9843 21.5057 23.5254 21.6762C26.6427 22.4922 29.9461 22.411 33.0039 23.4849C34.2698 23.9227 35.5083 24.7738 35.9416 26.1004C36.5084 27.8784 36.2599 30.0037 34.996 31.4311C33.971 32.6058 32.4782 33.2451 30.9893 33.5923C29.0085 34.0343 26.9529 34.0456 24.9414 33.8493C23.0499 33.6335 21.0816 33.1361 19.6214 31.8463C18.3728 30.7612 17.7629 29.0704 17.8234 27.4386C17.8379 27.163 18.112 26.9709 18.3758 26.9935C19.1316 26.9874 19.8874 26.9853 20.6431 26.9945C20.945 26.9729 21.1688 27.234 21.1843 27.5188C21.3237 28.4323 21.6668 29.3911 22.4627 29.9327C23.9987 30.9246 25.9261 30.8566 27.6849 30.8844C29.142 30.8197 30.7777 30.8001 31.9668 29.8362C32.5942 29.2864 32.7801 28.3666 32.6105 27.5753C32.4268 26.9072 31.7285 26.5959 31.1289 26.3923C28.0515 25.418 24.7113 25.7715 21.6637 24.6698C20.4265 24.2321 19.2301 23.4047 18.7547 22.1326C18.0915 20.3321 18.3954 18.105 19.7918 16.7258C21.1533 15.3538 23.1188 14.8257 24.9875 14.6366Z" fill="#8CC84B"/>
</g>
<defs>
<clipPath id="clip0_225_397">
<rect width="43.5464" height="48" fill="white"/>
</clipPath>
</defs>
</svg>
