<svg width="48" height="19" viewBox="0 0 48 19" fill="none" xmlns="http://www.w3.org/2000/svg">
<g clip-path="url(#clip0_225_669)">
<path d="M0 0H48V16H24V18.6667H13.3333V16H0V0ZM2.66667 13.3333H8V5.33333H10.6667V13.3333H13.3333V2.66667H2.66667V13.3333ZM16 2.66667V16H21.3333V13.3333H26.6667V2.66667H16ZM21.3333 5.33333H24V10.6667H21.3333V5.33333ZM29.3333 2.66667V13.3333H34.6667V5.33333H37.3333V13.3333H40V5.33333H42.6667V13.3333H45.3333V2.66667H29.3333Z" fill="#CB3837"/>
<path d="M2.6665 13.3334H7.99984V5.33341H10.6665V13.3334H13.3332V2.66675H2.6665V13.3334Z" fill="white"/>
<path d="M16 2.66675V16.0001H21.3333V13.3334H26.6667V2.66675H16ZM24 10.6667H21.3333V5.33341H24V10.6667Z" fill="white"/>
<path d="M29.3335 2.66675V13.3334H34.6668V5.33341H37.3335V13.3334H40.0002V5.33341H42.6668V13.3334H45.3335V2.66675H29.3335Z" fill="white"/>
</g>
<defs>
<clipPath id="clip0_225_669">
<rect width="48" height="18.6667" fill="white"/>
</clipPath>
</defs>
</svg>
