<svg width="48" height="48" viewBox="0 0 48 48" fill="none" xmlns="http://www.w3.org/2000/svg">
<g clip-path="url(#clip0_225_592)">
<path d="M1.77379 31.938C1.56529 31.9381 1.35883 31.897 1.16619 31.8172C0.97356 31.7375 0.798526 31.6205 0.651088 31.4731C0.503649 31.3257 0.386693 31.1507 0.306899 30.958C0.227105 30.7654 0.186035 30.559 0.186035 30.3505V1.7736C0.186035 1.5651 0.227105 1.35864 0.306899 1.16602C0.386693 0.973396 0.503649 0.798376 0.651088 0.650955C0.798526 0.503534 0.97356 0.386599 1.16619 0.306827C1.35883 0.227056 1.56529 0.186011 1.77379 0.186035H30.3507C30.5591 0.186035 30.7656 0.227099 30.9582 0.306881C31.1508 0.386664 31.3258 0.503603 31.4732 0.651021C31.6207 0.79844 31.7376 0.973452 31.8174 1.16606C31.8972 1.35868 31.9382 1.56512 31.9382 1.7736V16.062H46.2267C46.6477 16.062 47.0515 16.2293 47.3492 16.527C47.647 16.8247 47.8142 17.2285 47.8142 17.6496V46.2265C47.8142 46.6475 47.647 47.0513 47.3492 47.349C47.0515 47.6468 46.6477 47.814 46.2267 47.814H17.6494C17.2284 47.814 16.8246 47.6468 16.5268 47.349C16.2291 47.0513 16.0618 46.6475 16.0618 46.2265V31.938H1.77379Z" fill="white"/>
<path d="M30.3504 0H1.77356C1.30317 4.97247e-05 0.852055 0.186948 0.519453 0.519586C0.186851 0.852223 -2.62815e-09 1.30335 0 1.77375L0 30.3504L0.00075 30.4011C0.0139253 30.8625 0.206474 31.3006 0.537498 31.6224C0.868521 31.9441 1.31194 32.1241 1.77356 32.1242L15.876 32.124V46.2264C15.876 46.6968 16.0629 47.1479 16.3956 47.4805C16.7282 47.8131 17.1794 48 17.6497 48H46.2262C46.4592 48 46.6898 47.9541 46.905 47.865C47.1202 47.7758 47.3157 47.6452 47.4804 47.4805C47.6451 47.3158 47.7757 47.1202 47.8649 46.905C47.954 46.6898 47.9998 46.4592 47.9998 46.2262V17.6497L47.9991 17.5991C47.9859 17.1377 47.7933 16.6996 47.4623 16.3778C47.1313 16.0561 46.6879 15.8761 46.2262 15.876H32.1238V1.77375C32.1238 1.30335 31.937 0.852223 31.6044 0.519586C31.2718 0.186948 30.8206 4.97247e-05 30.3502 0L30.3504 0ZM30.3504 0.372C30.7222 0.372 31.0786 0.519664 31.3415 0.782508C31.6043 1.04535 31.752 1.40184 31.752 1.77356V16.062C31.752 16.1648 31.8352 16.248 31.938 16.248H46.2264C46.5982 16.248 46.9546 16.3957 47.2175 16.6585C47.4803 16.9214 47.628 17.2778 47.628 17.6496V46.2264C47.628 46.4105 47.5918 46.5928 47.5214 46.7628C47.4509 46.9329 47.3477 47.0874 47.2175 47.2175C47.0874 47.3477 46.9329 47.4509 46.7628 47.5214C46.5928 47.5918 46.4105 47.628 46.2264 47.628H17.6494C17.2777 47.628 16.9212 47.4803 16.6583 47.2175C16.3955 46.9547 16.2478 46.5982 16.2478 46.2264V31.938C16.2478 31.8887 16.2282 31.8414 16.1933 31.8065C16.1585 31.7716 16.1111 31.752 16.0618 31.752H1.77375C1.40203 31.752 1.04554 31.6043 0.782696 31.3415C0.519852 31.0786 0.372187 30.7222 0.372187 30.3504V1.77356C0.372187 1.40184 0.519852 1.04535 0.782696 0.782508C1.04554 0.519664 1.40203 0.372 1.77375 0.372H30.3504Z" fill="#16161A"/>
<path d="M10.7698 24C10.4189 24 10.0824 23.8606 9.83428 23.6125C9.58616 23.3644 9.44678 23.0279 9.44678 22.677V8.12403C9.44678 7.77314 9.58616 7.43663 9.83428 7.18852C10.0824 6.94041 10.4189 6.80103 10.7698 6.80103H15.7352C16.697 6.80103 17.5952 6.89778 18.4301 7.09128C19.283 7.26715 20.0182 7.57484 20.6351 8.01453C21.2703 8.4364 21.7695 9.00809 22.1323 9.72903C22.4953 10.4325 22.6768 11.3031 22.6768 12.3405C22.6768 13.3431 22.4863 14.2137 22.1051 14.952C21.7423 15.6908 21.243 16.2973 20.6079 16.7723C19.9727 17.247 19.2377 17.5988 18.4029 17.8275C17.568 18.0561 16.6788 18.1705 15.7352 18.1705H14.7714C14.4206 18.1705 14.0841 18.3098 13.836 18.5579C13.5879 18.806 13.4485 19.1424 13.4484 19.4933V22.677C13.4484 23.0279 13.309 23.3644 13.0609 23.6125C12.8128 23.8606 12.4763 24 12.1254 24H10.7698ZM13.4484 13.761C13.4484 14.1119 13.5878 14.4484 13.8359 14.6965C14.084 14.9446 14.4205 15.084 14.7714 15.084H15.4901C17.6679 15.084 18.7567 14.1694 18.7567 12.3405C18.7567 11.4437 18.4755 10.8105 17.913 10.4412C17.3685 10.072 16.5609 9.88746 15.4901 9.88746H14.7714C14.4206 9.88746 14.0841 10.0268 13.836 10.2749C13.5879 10.523 13.4485 10.8594 13.4484 11.2103V13.761ZM26.6458 41.199C26.472 41.199 26.3 41.1648 26.1395 41.0983C25.979 41.0318 25.8331 40.9344 25.7103 40.8115C25.5874 40.6887 25.49 40.5428 25.4235 40.3823C25.357 40.2218 25.3228 40.0498 25.3228 39.876V25.323C25.3228 25.1493 25.357 24.9772 25.4235 24.8167C25.49 24.6562 25.5874 24.5104 25.7103 24.3875C25.8331 24.2647 25.979 24.1672 26.1395 24.1007C26.3 24.0342 26.472 24 26.6458 24H31.2602C32.1817 24 33.0313 24.0703 33.8083 24.211C34.6037 24.3342 35.2905 24.5629 35.8689 24.8968C36.4472 25.2312 36.899 25.6707 37.2243 26.2157C37.5678 26.761 37.7394 27.4468 37.7394 28.2735C37.7394 28.6603 37.6762 29.0471 37.5497 29.4341C37.4411 29.821 37.2605 30.1815 37.0074 30.5155C36.7543 30.8498 36.4382 31.1487 36.0587 31.4125C35.6912 31.6678 35.256 31.8574 34.7529 31.9806C34.7387 31.9841 34.7261 31.9923 34.717 32.0038C34.708 32.0153 34.7031 32.0295 34.703 32.0441C34.703 32.0755 34.7257 32.1023 34.7565 32.1081C35.9953 32.3395 36.9352 32.7756 37.5768 33.4172C38.2275 34.0678 38.5528 34.9735 38.5528 36.1343C38.5528 37.0137 38.381 37.7698 38.0377 38.4028C37.6942 39.0358 37.2153 39.5635 36.6007 39.9855C35.9863 40.39 35.2635 40.6978 34.4319 40.9088C33.6187 41.1023 32.7332 41.199 31.775 41.199H26.6458ZM29.3081 29.5883C29.3081 29.762 29.3423 29.9341 29.4088 30.0946C29.4753 30.2551 29.5727 30.4009 29.6956 30.5238C29.8184 30.6466 29.9643 30.7441 30.1248 30.8106C30.2853 30.8771 30.4574 30.9113 30.6311 30.9113H31.0702C32.0463 30.9113 32.7512 30.7266 33.1848 30.3572C33.6187 29.988 33.8355 29.4692 33.8355 28.801C33.8355 28.1678 33.6097 27.7193 33.1576 27.4556C32.724 27.1744 32.0372 27.0336 31.0974 27.0336H30.6311C30.4574 27.0336 30.2853 27.0678 30.1248 27.1343C29.9643 27.2008 29.8184 27.2982 29.6956 27.4211C29.5727 27.5439 29.4753 27.6898 29.4088 27.8503C29.3423 28.0108 29.3081 28.1828 29.3081 28.3566V29.5883ZM29.3081 36.8427C29.3081 37.1935 29.4475 37.53 29.6957 37.778C29.9438 38.0261 30.2802 38.1655 30.6311 38.1655H31.4497C33.5825 38.1655 34.6488 37.3917 34.6488 35.8442C34.6488 35.088 34.3867 34.5428 33.8627 34.2086C33.3564 33.8745 32.5522 33.7075 31.4497 33.7075H30.6311C30.4574 33.7075 30.2853 33.7417 30.1248 33.8082C29.9643 33.8747 29.8184 33.9721 29.6956 34.095C29.5727 34.2178 29.4753 34.3637 29.4088 34.5242C29.3423 34.6847 29.3081 34.8567 29.3081 35.0305V36.8425V36.8427Z" fill="#16161A"/>
</g>
<defs>
<clipPath id="clip0_225_592">
<rect width="48" height="48" fill="white"/>
</clipPath>
</defs>
</svg>
