<svg width="40" height="48" viewBox="0 0 40 48" fill="none" xmlns="http://www.w3.org/2000/svg">
<g clip-path="url(#clip0_225_523)">
<path d="M38.9977 36.3817L22.6951 1.76095C22.4925 1.33496 22.1785 0.971662 21.7864 0.709496C21.3943 0.44733 20.9385 0.296048 20.4675 0.271659C19.9955 0.240031 19.5239 0.338415 19.1039 0.556112C18.684 0.773809 18.3317 1.10248 18.0855 1.50639L0.403776 30.145C0.134916 30.5774 -0.00509985 31.0775 0.000141965 31.5867C0.00538378 32.0958 0.155666 32.5929 0.433372 33.0197L9.07805 46.4069C9.4051 46.9095 9.88585 47.2928 10.4486 47.4998C11.0113 47.7067 11.6259 47.7262 12.2006 47.5553L37.2877 40.1347C37.6655 40.0242 38.0151 39.834 38.313 39.5768C38.6109 39.3196 38.8501 39.0014 39.0144 38.6438C39.1764 38.2881 39.259 37.9013 39.2563 37.5104C39.2536 37.1195 39.1658 36.7339 38.9989 36.3805L38.9977 36.3817ZM35.3478 37.8665L14.0599 44.1613C13.4105 44.3546 12.7872 43.7916 12.9223 43.1362L20.5279 6.71921C20.67 6.0379 21.6109 5.92994 21.9084 6.5605L35.9877 36.4587C36.0499 36.5919 36.0825 36.737 36.0832 36.884C36.084 37.0311 36.0528 37.1765 35.9919 37.3103C35.9309 37.4442 35.8417 37.5632 35.7303 37.6592C35.6189 37.7552 35.488 37.8259 35.3467 37.8664L35.3478 37.8665Z" fill="white"/>
</g>
<defs>
<clipPath id="clip0_225_523">
<rect width="39.648" height="48" fill="white"/>
</clipPath>
</defs>
</svg>
