<svg width="42" height="48" viewBox="0 0 42 48" fill="none" xmlns="http://www.w3.org/2000/svg">
<g clip-path="url(#clip0_225_384)">
<path d="M41.6842 24.0043C41.6842 21.2137 38.2261 18.5691 32.9242 16.9291C34.1478 11.4682 33.604 7.12346 31.2079 5.73247C30.6557 5.40618 30.0099 5.25163 29.3047 5.25163V7.16639C29.6955 7.16639 30.0099 7.24367 30.2733 7.38964C31.4288 8.05938 31.9301 10.6095 31.5393 13.8895C31.4458 14.6967 31.2929 15.5467 31.106 16.4139C29.4406 16.0018 27.6224 15.6841 25.7106 15.478C24.5636 13.8895 23.3741 12.447 22.1761 11.1848C24.946 8.58314 27.5459 7.15781 29.3132 7.15781V5.24304C26.9766 5.24304 23.9179 6.92597 20.8251 9.84534C17.7324 6.94315 14.6736 5.27739 12.337 5.27739V7.19215C14.0958 7.19215 16.7043 8.6089 19.4742 11.1934C18.2846 12.4556 17.0951 13.8895 15.9651 15.478C14.0448 15.6841 12.2266 16.0018 10.5612 16.4225C10.3658 15.5639 10.2214 14.731 10.1194 13.9325C9.72009 10.6525 10.2129 8.10231 11.3599 7.42398C11.6148 7.26943 11.9462 7.20074 12.337 7.20074V5.28597C11.6233 5.28597 10.9776 5.44053 10.4168 5.76681C8.02927 7.15781 7.49398 11.4939 8.72599 16.9377C3.44111 18.5863 0 21.2223 0 24.0043C0 26.7949 3.45811 29.4395 8.75997 31.0795C7.53646 36.5404 8.08025 40.8851 10.4763 42.2761C11.0286 42.6024 11.6743 42.757 12.388 42.757C14.7246 42.757 17.7833 41.074 20.8761 38.1546C23.9688 41.0568 27.0276 42.7226 29.3642 42.7226C30.0779 42.7226 30.7236 42.5681 31.2844 42.2418C33.6719 40.8508 34.2072 36.5147 32.9752 31.0709C38.2431 29.4309 41.6842 26.7863 41.6842 24.0043ZM30.6217 18.2772C30.3073 19.3848 29.9165 20.5268 29.4746 21.6688C29.1263 20.9819 28.7609 20.295 28.3616 19.6081C27.9707 18.9212 27.5544 18.2514 27.1381 17.5988C28.3446 17.7792 29.5086 18.0024 30.6217 18.2772ZM26.7302 27.4217C26.0675 28.5808 25.3878 29.6799 24.6826 30.7017C23.4166 30.8133 22.1336 30.8734 20.8421 30.8734C19.5591 30.8734 18.2761 30.8133 17.0186 30.7103C16.3134 29.6885 15.6252 28.598 14.9625 27.4474C14.3167 26.3226 13.7305 25.1806 13.1952 24.03C13.722 22.8795 14.3167 21.7289 14.954 20.6041C15.6167 19.4449 16.2964 18.3459 17.0017 17.3241C18.2676 17.2125 19.5506 17.1524 20.8421 17.1524C22.1251 17.1524 23.4081 17.2125 24.6656 17.3155C25.3708 18.3373 26.059 19.4277 26.7217 20.5783C27.3675 21.7031 27.9537 22.8451 28.489 23.9957C27.9537 25.1463 27.3675 26.2969 26.7302 27.4217ZM29.4746 26.3054C29.9334 27.456 30.3243 28.6066 30.6472 29.7228C29.5341 29.9976 28.3616 30.2294 27.1466 30.4097C27.5629 29.7486 27.9792 29.0703 28.3701 28.3748C28.7609 27.6878 29.1263 26.9924 29.4746 26.3054ZM20.8591 35.4671C20.0689 34.6428 19.2787 33.7241 18.4971 32.7195C19.2617 32.7538 20.0434 32.7796 20.8336 32.7796C21.6323 32.7796 22.4225 32.7624 23.1957 32.7195C22.431 33.7241 21.6408 34.6428 20.8591 35.4671ZM14.5376 30.4097C13.3311 30.2294 12.1671 30.0062 11.054 29.7314C11.3684 28.6238 11.7593 27.4818 12.2011 26.3398C12.5494 27.0267 12.9148 27.7136 13.3141 28.4005C13.7135 29.0874 14.1213 29.7572 14.5376 30.4097ZM20.8166 12.5415C21.6068 13.3658 22.397 14.2845 23.1787 15.2891C22.414 15.2548 21.6323 15.229 20.8421 15.229C20.0434 15.229 19.2532 15.2462 18.4801 15.2891C19.2448 14.2845 20.0349 13.3658 20.8166 12.5415ZM14.5292 17.5988C14.1128 18.26 13.6965 18.9383 13.3056 19.6338C12.9148 20.3207 12.5494 21.0076 12.2011 21.6946C11.7423 20.544 11.3514 19.3934 11.0286 18.2772C12.1416 18.011 13.3141 17.7792 14.5292 17.5988ZM6.83975 28.349C3.83196 27.0525 1.88624 25.3524 1.88624 24.0043C1.88624 22.6562 3.83196 20.9475 6.83975 19.6596C7.57045 19.3419 8.36913 19.0585 9.1933 18.7924C9.6776 20.4753 10.3148 22.2269 11.105 24.0215C10.3233 25.8074 9.6946 27.5505 9.21879 29.2248C8.37763 28.9586 7.57895 28.6667 6.83975 28.349ZM11.4109 40.6189C10.2554 39.9492 9.75407 37.399 10.1449 34.119C10.2384 33.3119 10.3913 32.4619 10.5782 31.5947C12.2436 32.0068 14.0618 32.3245 15.9736 32.5306C17.1206 34.119 18.3101 35.5616 19.5081 36.8238C16.7383 39.4254 14.1383 40.8508 12.371 40.8508C11.9887 40.8422 11.6658 40.7649 11.4109 40.6189ZM31.5648 34.0761C31.9641 37.3561 31.4713 39.9063 30.3243 40.5846C30.0694 40.7392 29.738 40.8078 29.3472 40.8078C27.5884 40.8078 24.9799 39.3911 22.2101 36.8066C23.3996 35.5444 24.5891 34.1105 25.7191 32.522C27.6394 32.3159 29.4576 31.9982 31.123 31.5775C31.3184 32.4447 31.4713 33.2776 31.5648 34.0761ZM34.836 28.349C34.1053 28.6667 33.3066 28.95 32.4824 29.2162C31.9981 27.5333 31.3609 25.7817 30.5707 23.9871C31.3524 22.2011 31.9811 20.4581 32.4569 18.7838C33.2981 19.0499 34.0968 19.3419 34.8445 19.6596C37.8523 20.9561 39.798 22.6562 39.798 24.0043C39.7895 25.3524 37.8438 27.061 34.836 28.349Z" fill="#61DAFB"/>
<path d="M20.8336 27.9283C22.9781 27.9283 24.7166 26.1715 24.7166 24.0043C24.7166 21.8371 22.9781 20.0803 20.8336 20.0803C18.6891 20.0803 16.9507 21.8371 16.9507 24.0043C16.9507 26.1715 18.6891 27.9283 20.8336 27.9283Z" fill="#61DAFB"/>
</g>
<defs>
<clipPath id="clip0_225_384">
<rect width="41.6842" height="48" fill="white"/>
</clipPath>
</defs>
</svg>
