<svg width="65" height="48" viewBox="0 0 65 48" fill="none" xmlns="http://www.w3.org/2000/svg">
<g clip-path="url(#clip0_225_639)">
<path d="M55.1078 27.5888C52.875 27.6005 50.9344 28.1382 49.3094 28.9332C48.7132 27.7525 48.117 26.7003 48.0118 25.9288C47.8949 25.0287 47.7546 24.4792 47.8949 23.4037C48.0352 22.3282 48.6665 20.7968 48.6548 20.6799C48.6431 20.563 48.5145 20.0135 47.2286 20.0019C45.9427 19.9902 44.8321 20.2474 44.7035 20.5864C44.5749 20.9254 44.3294 21.6969 44.1657 22.4919C43.9436 23.6609 41.5939 27.8343 40.2495 30.0204C39.817 29.167 39.4429 28.4188 39.3611 27.8226C39.2442 26.9225 39.1039 26.373 39.2442 25.2975C39.3844 24.222 40.0157 22.6906 40.004 22.5737C39.9923 22.4568 39.8637 21.9074 38.5778 21.8957C37.2919 21.884 36.1813 22.1412 36.0527 22.4802C35.9241 22.8192 35.7839 23.6141 35.515 24.3857C35.2461 25.1572 32.1248 32.1246 31.3065 33.9249C30.8857 34.8484 30.5233 35.5849 30.2661 36.0876C30.2661 36.0876 30.2544 36.1227 30.2193 36.1811C29.9972 36.6136 29.8686 36.8475 29.8686 36.8475C29.8686 36.8475 29.8686 36.8475 29.8686 36.8591C29.6933 37.1748 29.5062 37.467 29.4127 37.467C29.3426 37.467 29.214 36.6253 29.4361 35.4797C29.9037 33.0598 31.0143 29.2956 31.0026 29.167C31.0026 29.0968 31.213 28.4422 30.2778 28.1032C29.3659 27.7642 29.0386 28.3253 28.9568 28.3253C28.875 28.3253 28.8165 28.524 28.8165 28.524C28.8165 28.524 29.8335 24.2922 26.8759 24.2922C25.0289 24.2922 22.4804 26.3146 21.2179 28.1382C20.4229 28.5708 18.7278 29.4943 16.9159 30.488C16.2261 30.8738 15.513 31.2595 14.8467 31.6219C14.7999 31.5752 14.7532 31.5167 14.7064 31.47C11.1292 27.6473 4.51256 24.9468 4.79312 19.8148C4.89833 17.9444 5.54129 13.0345 17.5004 7.07249C27.3435 2.22105 35.176 3.56542 36.532 6.54643C38.4726 10.8017 32.3353 18.7042 22.1648 19.8499C18.2836 20.2824 16.2495 18.7861 15.7352 18.2249C15.1974 17.6404 15.1156 17.6054 14.9168 17.7223C14.5895 17.8976 14.7999 18.4237 14.9168 18.7276C15.2208 19.5226 16.4716 20.9254 18.5876 21.6151C20.458 22.223 25.0055 22.562 30.5116 20.4344C36.6723 18.0496 41.4887 11.4212 40.0742 5.86839C38.6597 0.233714 29.3075 -1.62503 20.458 1.51964C15.1974 3.39007 9.49258 6.336 5.38932 10.1704C0.514504 14.7296 -0.257049 18.6926 0.0585865 20.3526C1.19254 26.2444 9.31723 30.0788 12.5671 32.9195C12.4034 33.0131 12.2515 33.0949 12.1229 33.165C10.4979 33.9717 4.30213 37.2098 2.75902 40.6351C1.00549 44.5162 3.03959 47.2985 4.38396 47.6726C8.55737 48.8299 12.8477 46.7491 15.1506 43.3121C17.4536 39.8752 17.1731 35.4096 16.1092 33.3638C16.0976 33.3404 16.0859 33.317 16.0625 33.2936C16.4833 33.0481 16.9159 32.7909 17.3367 32.5455C18.1667 32.0545 18.985 31.5985 19.6864 31.2245C19.289 32.3116 18.9967 33.6093 18.8564 35.4797C18.6811 37.6775 19.5812 40.5299 20.7619 41.6521C21.288 42.1431 21.9076 42.1548 22.3051 42.1548C23.6845 42.1548 24.3041 41.0092 24.9938 39.6531C25.8355 37.9931 26.5954 36.0642 26.5954 36.0642C26.5954 36.0642 25.6485 41.278 28.2203 41.278C29.1555 41.278 30.1024 40.0623 30.5233 39.4427C30.5233 39.4544 30.5233 39.4544 30.5233 39.4544C30.5233 39.4544 30.5467 39.4193 30.5934 39.3375C30.6869 39.1855 30.7454 39.092 30.7454 39.092C30.7454 39.092 30.7454 39.0803 30.7454 39.0686C31.1195 38.4139 31.9612 36.9293 33.212 34.4626C34.8253 31.2829 36.3801 27.3082 36.3801 27.3082C36.3801 27.3082 36.5203 28.2785 36.9996 29.8918C37.2802 30.8387 37.8647 31.8791 38.3323 32.8845C37.9582 33.4105 37.7244 33.7028 37.7244 33.7028C37.7244 33.7028 37.7244 33.7028 37.7361 33.7145C37.4322 34.1119 37.1049 34.5445 36.7425 34.9653C35.4682 36.4851 33.9485 38.2269 33.7381 38.7296C33.4926 39.3258 33.551 39.7583 34.0186 40.109C34.3577 40.3662 34.9655 40.4013 35.5851 40.3662C36.7308 40.2844 37.5374 40.0038 37.9349 39.8285C38.5544 39.6063 39.2792 39.2673 39.9573 38.7646C41.2081 37.8411 41.968 36.5201 41.8978 34.7783C41.8628 33.8197 41.5471 32.8611 41.1614 31.9609C41.2783 31.7973 41.3835 31.6336 41.5004 31.47C43.476 28.5825 45.0074 25.4144 45.0074 25.4144C45.0074 25.4144 45.1477 26.3847 45.627 27.998C45.8608 28.8163 46.3401 29.7047 46.761 30.5698C44.9022 32.0778 43.7566 33.8314 43.3474 34.977C42.6109 37.1046 43.1838 38.0632 44.271 38.2853C44.7619 38.3906 45.4634 38.1568 45.9777 37.9346C46.6324 37.7242 47.4039 37.3618 48.1404 36.8241C49.3913 35.9005 50.5954 34.6146 50.5252 32.8728C50.4902 32.0778 50.2797 31.2946 49.9875 30.5347C51.5656 29.8801 53.5997 29.5177 56.195 29.8216C61.7595 30.4763 62.8584 33.9483 62.648 35.4096C62.4375 36.8708 61.2685 37.6658 60.8827 37.9113C60.497 38.1568 60.3684 38.2386 60.4035 38.4139C60.4502 38.6711 60.6373 38.6594 60.9646 38.6127C61.4205 38.5308 63.8871 37.432 63.9923 34.7432C64.1677 31.3063 60.8944 27.5537 55.1078 27.5888ZM12.1813 42.0613C10.3343 44.072 7.76243 44.8319 6.65186 44.1889C5.45946 43.4992 5.92707 40.5299 8.19497 38.4022C9.57442 37.1046 11.3513 35.9005 12.532 35.1641C12.8009 35.0004 13.1984 34.7666 13.6777 34.4743C13.7595 34.4276 13.8063 34.4042 13.8063 34.4042C13.8998 34.3457 13.9933 34.2873 14.0868 34.2288C14.9168 37.2683 14.1219 39.9454 12.1813 42.0613ZM25.6251 32.9195C24.9821 34.486 23.6377 38.4958 22.8194 38.2737C22.118 38.0866 21.6855 35.0472 22.6791 32.0428C23.1818 30.5347 24.2456 28.7344 24.8652 28.033C25.8706 26.9108 26.9811 26.5367 27.25 26.9926C27.589 27.5888 26.0225 31.9376 25.6251 32.9195ZM36.7191 38.2269C36.4502 38.3672 36.193 38.4607 36.0761 38.3906C35.9943 38.3438 36.193 38.1568 36.193 38.1568C36.193 38.1568 37.5842 36.6604 38.1336 35.9824C38.4492 35.5849 38.8233 35.1173 39.2208 34.5912C39.2208 34.638 39.2208 34.6965 39.2208 34.7432C39.2208 36.5318 37.4906 37.7359 36.7191 38.2269ZM45.2763 36.2746C45.0776 36.1343 45.1127 35.6667 45.779 34.2055C46.0362 33.6326 46.6441 32.674 47.6845 31.7505C47.8014 32.1246 47.8832 32.487 47.8715 32.826C47.8599 35.0822 46.2466 35.9239 45.2763 36.2746Z" fill="#CD6799"/>
</g>
<defs>
<clipPath id="clip0_225_639">
<rect width="64.039" height="48" fill="white"/>
</clipPath>
</defs>
</svg>
