<svg width="48" height="29" viewBox="0 0 48 29" fill="none" xmlns="http://www.w3.org/2000/svg">
<g clip-path="url(#clip0_225_637)">
<path d="M24 0C17.6024 0 13.604 3.19661 12.0045 9.58923C14.4038 6.39262 17.2028 5.19434 20.4013 5.9932C22.2265 6.449 23.5308 7.77262 24.975 9.23719C27.327 11.6229 30.0491 14.3841 35.9956 14.3841C42.3926 14.3841 46.3915 11.1875 47.9905 4.79432C45.5918 7.99093 42.7928 9.18981 39.5937 8.39095C37.7691 7.93515 36.4648 6.61153 35.0206 5.14696C32.6686 2.7612 29.9459 0 24 0ZM12.0045 14.3841C5.60741 14.3841 1.60849 17.5808 0.00952148 23.974C2.40827 20.7774 5.20721 19.5785 8.40635 20.3779C10.2309 20.8343 11.5353 22.1574 12.9795 23.6213C15.3314 26.0071 18.0541 28.7689 24 28.7689C30.3977 28.7689 34.396 25.5723 35.9956 19.1791C33.5962 22.3757 30.7973 23.5746 27.5987 22.7751C25.7736 22.3199 24.4692 20.9957 23.025 19.5317C20.6731 17.1459 17.9509 14.3841 12.0045 14.3841Z" fill="#06B6D4"/>
</g>
<defs>
<clipPath id="clip0_225_637">
<rect width="48" height="28.7689" fill="white"/>
</clipPath>
</defs>
</svg>
