<svg width="72" height="72" viewBox="0 0 72 72" fill="none" xmlns="http://www.w3.org/2000/svg">
<g clip-path="url(#clip0_225_370)">
<path d="M72 0H0V72H72V0Z" fill="#3178C6"/>
<path fill-rule="evenodd" clip-rule="evenodd" d="M42.3281 56.3906V64.1531C43.5938 64.8 45.0844 65.2781 46.8 65.6156C48.5156 65.9531 50.3438 66.0937 52.2563 66.0937C54.1125 66.0937 55.8844 65.925 57.5719 65.5594C59.2594 65.1937 60.7219 64.6031 61.9875 63.7875C63.2531 62.9719 64.2375 61.9031 64.9969 60.5812C65.7281 59.2593 66.0938 57.6281 66.0938 55.6875C66.0938 54.2812 65.8969 53.0437 65.475 51.975C65.0531 50.9062 64.4344 49.9781 63.6469 49.1343C62.8594 48.3187 61.9031 47.5594 60.8062 46.9125C59.7094 46.2656 58.4437 45.6468 57.0656 45.0562C56.0531 44.6343 55.125 44.2406 54.3094 43.8187C53.4938 43.425 52.8188 43.0312 52.2563 42.6094C51.6938 42.1875 51.2438 41.7656 50.9344 41.2875C50.625 40.8094 50.4844 40.3031 50.4844 39.7125C50.4844 39.1781 50.625 38.7 50.9062 38.2781C51.1875 37.8562 51.5813 37.4906 52.0594 37.1812C52.5656 36.8718 53.1844 36.6468 53.9156 36.4781C54.6469 36.3093 55.4625 36.225 56.3344 36.225C56.9813 36.225 57.6562 36.2812 58.3875 36.3656C59.1188 36.45 59.8219 36.6187 60.5531 36.8156C61.2844 37.0125 61.9875 37.2656 62.6906 37.575C63.3656 37.8844 64.0125 38.25 64.6031 38.6437V31.3875C63.4219 30.9375 62.1281 30.6 60.7219 30.375C59.3156 30.15 57.7125 30.0375 55.9125 30.0375C54.0563 30.0375 52.3125 30.2344 50.6531 30.6281C48.9938 31.0219 47.5594 31.6406 46.2938 32.4843C45.0281 33.3281 44.0438 34.3969 43.3125 35.6906C42.5812 36.9844 42.2156 38.5594 42.2156 40.3594C42.2156 42.6656 42.8906 44.6344 44.2125 46.2937C45.5625 47.925 47.5875 49.3031 50.2875 50.4562C51.3563 50.9062 52.3406 51.3281 53.2687 51.75C54.1969 52.1719 54.9844 52.5937 55.6594 53.0718C56.3344 53.55 56.8688 54.0281 57.2625 54.5625C57.6562 55.0968 57.8531 55.7156 57.8531 56.3906C57.8531 56.8969 57.7406 57.3468 57.4875 57.7969C57.2344 58.2187 56.8688 58.5844 56.3906 58.9219C55.9125 59.2593 55.2937 59.4844 54.5344 59.6531C53.775 59.8219 52.9312 59.9062 51.9469 59.9062C50.2594 59.9062 48.6 59.5969 46.9406 59.0062C45.2812 58.4437 43.7344 57.5718 42.3281 56.3906ZM29.3906 37.0406H39.375V30.6562H11.5312V37.0406H21.4594V65.5312H29.3625V37.0406H29.3906Z" fill="white"/>
</g>
<defs>
<clipPath id="clip0_225_370">
<rect width="72" height="72" rx="12" fill="white"/>
</clipPath>
</defs>
</svg>
