<svg width="49" height="48" viewBox="0 0 49 48" fill="none" xmlns="http://www.w3.org/2000/svg">
<g clip-path="url(#clip0_225_658)">
<path d="M1.39681 17.1587C1.39681 17.1587 0.239722 16.3246 1.62823 15.2109L4.86327 12.3182C4.86327 12.3182 5.78894 11.3443 6.76764 12.1929L36.6206 34.7947V45.6328C36.6206 45.6328 36.6061 47.3347 34.4221 47.1467L1.39681 17.1587Z" fill="#2489CA"/>
<path d="M9.09148 24.1445L1.39682 31.1401C1.39682 31.1401 0.606144 31.7283 1.39682 32.7793L4.96934 36.0288C4.96934 36.0288 5.81788 36.94 7.07139 35.9035L15.2289 29.7179L9.09148 24.1445Z" fill="#1070B3"/>
<path d="M22.6006 24.2025L36.7123 13.4271L36.6207 2.6469C36.6207 2.6469 36.0181 0.294152 34.0076 1.51874L15.229 18.6099L22.6006 24.2025Z" fill="#0877B9"/>
<path d="M34.4224 47.1611C35.242 48 36.2352 47.7252 36.2352 47.7252L47.2324 42.3061C48.6402 41.3467 48.4425 40.1559 48.4425 40.1559V7.79589C48.4425 6.37363 46.9865 5.88187 46.9865 5.88187L37.455 1.28725C35.3722 -1.07288e-05 34.0078 1.51867 34.0078 1.51867C34.0078 1.51867 35.7627 0.255514 36.6209 2.64684V45.4351C36.6209 45.7292 36.5582 46.0185 36.4329 46.2788C36.1822 46.785 35.6374 47.2575 34.3308 47.0598L34.4224 47.1611Z" fill="#3C99D4"/>
</g>
<defs>
<clipPath id="clip0_225_658">
<rect width="48.8798" height="48" fill="white"/>
</clipPath>
</defs>
</svg>
